Coordinates
version=1
nRows=19
nColumns=33
inDegrees=yes

Units are S.I. units (second, meters, Newtons, ...)
Angles are in degrees.

endheader
time	ground_thorax_rot_x	ground_thorax_rot_y	ground_thorax_rot_z	ground_thorax_tx	ground_thorax_ty	ground_thorax_tz	clav_prot_r	clav_elev_r	scapula_abduction_r	scapula_elevation_r	scapula_upward_rot_r	scapula_winging_r	shoulder_elv_r	plane_of_elev_r	axial_rot_r	elbow_flexion_r	pro_sup_r	wrist_flex_r	wrist_dev_r	clav_prot_l	clav_elev_l	scapula_abduction_l	scapula_elevation_l	scapula_upward_rot_l	scapula_winging_l	shoulder_elv_l	plane_of_elev_l	axial_rot_l	elbow_flexion_l	pro_sup_l	wrist_flex_l	wrist_dev_l
      9.93000000	    -18.46165680	    -34.11685282	     57.69204823	     97.90722712	    772.02079968	    -39.38415701	     28.92746124	    -45.00000000	     39.92131454	    -45.00000000	    -45.00000000	  -2619.82674522	  -4608.24736963	     18.34410758	   -137.20643569	   1800.96171357	   -185.11790836	     12.85066277	     12.13421829	     -0.98736138	     29.52585535	    -25.41366489	    -45.00000000	    -45.00000000	  -5681.71994219	  -2085.73660955	     26.40410629	     50.54783113	    -10.16644823	   -313.67396873	     11.43691746	    -13.80123794
      9.94000000	    -18.67185882	    -34.07968061	     57.45645744	     97.63291390	    771.63256167	    -39.28491164	     28.62936902	    -45.00000000	     39.60167733	    -45.00000000	    -45.00000000	  -2619.82041192	  -4608.09816785	     18.50090170	   -136.55715692	   1800.92864497	   -185.06771345	     12.86494761	     12.19206548	     -0.95145537	     29.30808258	    -25.32290324	    -45.00000000	    -45.00000000	  -5681.75031495	  -2085.61554904	     26.47958567	     50.62046666	    -10.19015288	   -313.77437391	     11.07900954	    -13.86244409
      9.95000000	    -18.68071861	    -34.05195036	     57.51810828	     97.23023817	    771.23111758	    -39.20611565	     28.68893187	    -45.00000000	     39.87336218	    -45.00000000	    -45.00000000	  -2619.93039219	  -4608.16539106	     18.33656658	   -136.71474119	   1801.00126536	   -185.09228995	     12.96051504	     11.92158384	     -0.92217551	     29.47498229	    -25.55817578	    -45.00000000	    -45.00000000	  -5681.62439106	  -2085.72883202	     26.27353955	     50.53896367	    -10.13706943	   -313.78888971	     11.54860254	    -13.80929299
      9.96000000	    -18.89807415	    -33.90697136	     57.22658362	     96.70913669	    770.81723480	    -39.14993865	     28.75696410	    -45.00000000	     39.64107000	    -45.00000000	    -45.00000000	  -2619.93336246	  -4607.93514867	     18.41412103	   -136.33599828	   1800.92174021	   -184.89074405	     12.92793856	     12.17599944	     -1.01186008	     29.23751562	    -25.51920255	    -45.00000000	    -45.00000000	  -5681.69148389	  -2085.69551281	     26.45615748	     50.27750795	    -10.31076611	   -313.76672819	     11.03305913	    -13.94192696
      9.97000000	    -18.92205024	    -33.99560092	     57.27343776	     96.08017366	    770.39649412	    -39.11596827	     28.63343066	    -45.00000000	     39.81138583	    -45.00000000	    -45.00000000	  -2620.03776074	  -4608.04972692	     18.33295895	   -136.28415601	   1801.02091351	   -184.70160420	     13.09686760	     11.64271086	     -0.82979742	     29.55828467	    -25.54744777	    -45.00000000	    -45.00000000	  -5681.52832030	  -2085.64755962	     26.28589164	     50.23346178	    -10.04130149	   -313.59709868	     11.74331482	    -13.80654664
      9.98000000	    -19.07187814	    -33.95902530	     57.15640355	     95.32833437	    769.96230439	    -39.09522223	     28.76356540	    -45.00000000	     39.75956816	    -45.00000000	    -45.00000000	  -2620.01061198	  -4607.89868035	     18.29476221	   -135.99865057	   1801.00272208	   -184.27723551	     13.06615867	     11.87276431	     -0.91255281	     29.34789866	    -25.60999571	    -45.00000000	    -45.00000000	  -5681.48490357	  -2085.67484069	     26.25861891	     50.00096119	    -10.07180795	   -313.33807445	     11.21437798	    -14.02441213
      9.99000000	    -19.35041241	    -33.79243558	     56.78190284	     94.44445661	    769.51924218	    -39.05451246	     28.74357425	    -45.00000000	     39.58120008	    -45.00000000	    -45.00000000	  -2620.16112377	  -4607.78866424	     18.52006128	   -135.69838177	   1800.95449453	   -183.83432978	     13.12725918	     11.84813358	     -0.98839729	     29.39167031	    -25.56924533	    -45.00000000	    -45.00000000	  -5681.48691587	  -2085.62343777	     26.49552564	     49.79786673	    -10.07285808	   -312.98222209	     11.52472178	    -13.99775178
     10.00000000	    -19.42485058	    -33.86864749	     56.83439441	     93.41375575	    769.06472970	    -39.01903441	     28.66969472	    -45.00000000	     39.65849350	    -45.00000000	    -45.00000000	  -2620.05874400	  -4607.72418864	     18.22180985	   -135.56379145	   1800.94726857	   -183.27577679	     13.24990796	     11.74292595	     -0.78032197	     29.34661636	    -25.71871074	    -45.00000000	    -45.00000000	  -5681.38363383	  -2085.64548724	     26.19840817	     49.65298619	     -9.98885542	   -312.60703516	     11.09460775	    -14.18515853
     10.01000000	    -19.65333194	    -33.82726581	     56.54239325	     92.20527378	    768.59504310	    -38.98864387	     28.74977723	    -45.00000000	     39.65009911	    -45.00000000	    -45.00000000	  -2620.12451631	  -4607.71501541	     18.34895863	   -135.20962779	   1801.03781500	   -182.47885997	     13.34517100	     11.70322051	     -0.89117811	     29.38133101	    -25.70906519	    -45.00000000	    -45.00000000	  -5681.32299293	  -2085.66052088	     26.20201672	     49.49367160	     -9.77374097	   -312.10402076	     11.32396502	    -14.21368855
     10.02000000	    -19.99459457	    -33.71439581	     56.20459805	     90.80348699	    768.10943288	    -38.98157208	     28.71798874	    -45.00000000	     39.48660215	    -45.00000000	    -45.00000000	  -2620.24136961	  -4607.63329960	     18.33739718	   -134.80473692	   1800.93812293	   -181.55094283	     13.64388951	     11.61198764	     -0.88252391	     29.14852507	    -25.86364239	    -45.00000000	    -45.00000000	  -5681.07058905	  -2085.65847018	     26.37200151	     49.39950047	     -9.81809570	   -311.64075535	     11.21150647	    -14.44281996
     10.03000000	    -22.66673711	    -34.43687754	     54.88689534	     84.58347285	    776.96271009	    -51.43289246	     29.01444298	    -45.00000000	     39.14825396	    -45.00000000	    -45.00000000	  -2618.99827019	  -4608.14046906	     16.59404620	   -133.25255912	   1798.10222367	   -181.10910628	     11.97396379	     11.57826315	      0.16457378	     29.57302731	    -25.92485202	    -45.00000000	    -45.00000000	  -5681.09138334	  -2085.94943340	     26.42600819	     48.12724051	     -9.21577603	   -310.64081595	     11.08522676	    -14.62655859
     10.04000000	    -23.46542095	    -34.01391537	     53.88998658	     83.14499211	    776.61778664	    -51.38571721	     28.44082028	    -45.00000000	     38.68745629	    -45.00000000	    -45.00000000	  -2618.65758842	  -4608.01573231	     16.59082201	   -133.40997672	   1798.04849049	   -181.08363413	     12.07816644	     11.52226781	      0.57848102	     29.31065942	    -26.27968303	    -45.00000000	    -45.00000000	  -5681.28524419	  -2085.73325251	     26.41364519	     48.76685654	     -9.24130827	   -310.16891023	     10.97022777	    -14.60255041
     10.05000000	    -23.85288878	    -33.85372901	     53.41030254	     81.60655743	    776.30487218	    -51.34711200	     28.44906894	    -45.00000000	     38.66195759	    -45.00000000	    -45.00000000	  -2618.63186952	  -4608.09401995	     16.67507434	   -133.35717864	   1798.15648821	   -180.93331581	     12.05944277	     11.56700409	      0.52712821	     28.88556195	    -26.49726663	    -45.00000000	    -45.00000000	  -5681.01237233	  -2085.87047370	     26.48547977	     48.82960409	     -9.16452025	   -309.77067047	     10.87940129	    -14.67446736
     10.06000000	    -24.09542219	    -33.71721526	     53.21801937	     79.99725404	    776.03937857	    -51.31550709	     28.42203897	    -45.00000000	     38.59714389	    -45.00000000	    -45.00000000	  -2618.71873813	  -4608.04855991	     16.65075726	   -133.30909877	   1798.09554192	   -180.83179798	     12.14675455	     11.65583063	      0.55118054	     29.09809148	    -26.55008849	    -45.00000000	    -45.00000000	  -5680.91274211	  -2085.77898900	     26.48360651	     48.74741859	     -9.15011072	   -309.41513821	     10.92462310	    -14.81631222
     10.07000000	    -24.33589271	    -33.53929200	     52.96577325	     78.28912744	    775.79930041	    -51.28623323	     28.41956261	    -45.00000000	     38.56087164	    -45.00000000	    -45.00000000	  -2618.72753779	  -4607.98385154	     16.64780144	   -133.28358349	   1798.10463201	   -180.82074840	     12.20698611	     11.69123535	      0.58459114	     29.12403462	    -26.50887199	    -45.00000000	    -45.00000000	  -5680.90804203	  -2085.74901361	     26.46118596	     48.53662640	     -9.09961278	   -309.08248688	     10.87700474	    -14.86977043
     10.08000000	    -24.37078076	    -33.36803283	     52.99177855	     76.57036836	    775.64139149	    -51.25992195	     28.48390584	    -45.00000000	     38.62123367	    -45.00000000	    -45.00000000	  -2618.80983703	  -4607.82056996	     16.51551412	   -133.46273510	   1798.06738045	   -181.19102201	     12.33957699	     11.73134277	      0.62251159	     29.56561584	    -26.48285917	    -45.00000000	    -45.00000000	  -5681.01698073	  -2085.63183096	     26.26366591	     48.25651347	     -9.15493018	   -308.73214519	     10.91911980	    -14.95571859
     10.09000000	    -24.61919257	    -33.15805268	     52.78993828	     74.95005556	    775.62470481	    -51.23811509	     28.46069264	    -45.00000000	     38.56244529	    -45.00000000	    -45.00000000	  -2618.89164563	  -4607.91004264	     16.65695448	   -133.85871339	   1798.13776385	   -182.21680744	     12.52807212	     11.78191245	      0.56953668	     29.43461629	    -26.42989481	    -45.00000000	    -45.00000000	  -5680.87862189	  -2085.66345284	     26.36556808	     47.93509601	     -9.07002641	   -308.44672937	     10.83273165	    -14.99964369
     10.10000000	    -24.79852066	    -32.89632796	     52.74489649	     73.52345229	    775.80584180	    -51.22334859	     28.48699988	    -45.00000000	     38.59202682	    -45.00000000	    -45.00000000	  -2618.86000013	  -4608.02660425	     16.67562732	   -134.87969529	   1798.24849564	   -184.44955978	     12.75028180	     11.87914320	      0.59093264	     29.54712502	    -26.49675785	    -45.00000000	    -45.00000000	  -5680.79548482	  -2085.66574853	     26.28357180	     47.51608748	     -9.07349866	   -308.15200903	     10.84709083	    -15.08945678
     10.11000000	    -30.00350535	    -33.70386438	     49.31024662	     63.57580590	    788.22180709	    -65.03202350	     28.05106352	    -45.00000000	     37.76824018	    -45.00000000	    -45.00000000	  -2616.88359399	  -4607.39172683	     14.18030194	   -130.42481599	   1796.72950231	   -185.35144983	     21.68601701	     16.00165695	      2.19310580	     29.95506107	    -27.65845955	    -45.00000000	    -45.00000000	  -5680.21564266	  -2085.52527108	     26.51743043	     47.41752580	     -8.45106508	   -307.70098037	     10.58318352	    -15.18160891
